<svg xmlns="http://www.w3.org/2000/svg" viewBox="0 0 512 512" role="img" aria-label="WebSys icon">
  <defs>
    <linearGradient id="bg" x1="0%" y1="0%" x2="100%" y2="100%">
      <stop offset="0%" stop-color="#14223a" />
      <stop offset="55%" stop-color="#0a1226" />
      <stop offset="100%" stop-color="#1a3f82" />
    </linearGradient>
    <linearGradient id="blue" x1="0%" y1="0%" x2="100%" y2="100%">
      <stop offset="0%" stop-color="#65c5ff" />
      <stop offset="100%" stop-color="#2b78ff" />
    </linearGradient>
    <linearGradient id="silver" x1="0%" y1="0%" x2="100%" y2="100%">
      <stop offset="0%" stop-color="#f7fbff" />
      <stop offset="100%" stop-color="#cfd9ea" />
    </linearGradient>
    <filter id="softGlow" x="-20%" y="-20%" width="140%" height="140%">
      <feGaussianBlur stdDeviation="4" result="blur" />
      <feMerge>
        <feMergeNode in="blur" />
        <feMergeNode in="SourceGraphic" />
      </feMerge>
    </filter>
  </defs>

  <rect x="20" y="20" width="472" height="472" rx="94" fill="url(#bg)" stroke="#d3def3" stroke-width="12" />
  <rect x="32" y="32" width="448" height="448" rx="84" fill="none" stroke="#5f6f90" stroke-width="5" opacity="0.7" />
  <path d="M56 84h400v58" fill="none" stroke="#c8d9ff" stroke-width="8" opacity="0.3" />

  <polyline
    points="108 252 214 338 408 180"
    fill="none"
    stroke="url(#silver)"
    stroke-width="42"
    stroke-linecap="round"
    stroke-linejoin="round"
    filter="url(#softGlow)"
  />
  <polyline
    points="108 318 236 410 416 266"
    fill="none"
    stroke="#e8edf8"
    stroke-opacity="0.95"
    stroke-width="34"
    stroke-linecap="round"
    stroke-linejoin="round"
  />

  <path
    d="M160 196l86 62 76-59"
    fill="none"
    stroke="url(#blue)"
    stroke-width="38"
    stroke-linecap="round"
    stroke-linejoin="round"
    filter="url(#softGlow)"
  />
  <path
    d="M246 258l92-76"
    fill="none"
    stroke="url(#blue)"
    stroke-width="38"
    stroke-linecap="round"
    stroke-linejoin="round"
    filter="url(#softGlow)"
  />

  <circle cx="154" cy="192" r="10" fill="#1d4b8f" />
  <circle cx="154" cy="192" r="6" fill="#8ed5ff" />
  <circle cx="338" cy="410" r="11" fill="#dbe5f5" />
  <circle cx="338" cy="410" r="6" fill="#244479" />
</svg>
